<svg width="131" height="18" viewBox="0 0 131 18" fill="none" xmlns="http://www.w3.org/2000/svg">
<path d="M116.844 12.3516H115.133V15H113.867V12.3516H108.344V11.2578L113.781 3.51562H115.133V11.1797H116.844V12.3516ZM113.867 11.1797V7.44531C113.867 7.15885 113.87 6.90104 113.875 6.67188C113.88 6.4375 113.888 6.22135 113.898 6.02344C113.909 5.82031 113.917 5.6276 113.922 5.44531C113.932 5.26302 113.94 5.08333 113.945 4.90625H113.883C113.784 5.11458 113.669 5.33594 113.539 5.57031C113.414 5.79948 113.286 6.00521 113.156 6.1875L109.633 11.1797H113.867ZM118.328 14.1875C118.328 13.8229 118.417 13.5651 118.594 13.4141C118.771 13.2578 118.987 13.1797 119.242 13.1797C119.508 13.1797 119.732 13.2578 119.914 13.4141C120.096 13.5651 120.188 13.8229 120.188 14.1875C120.188 14.5469 120.096 14.8099 119.914 14.9766C119.732 15.138 119.508 15.2188 119.242 15.2188C118.987 15.2188 118.771 15.138 118.594 14.9766C118.417 14.8099 118.328 14.5469 118.328 14.1875ZM125.922 3.41406C126.583 3.41406 127.169 3.51823 127.68 3.72656C128.19 3.9349 128.589 4.24219 128.875 4.64844C129.167 5.04948 129.312 5.54427 129.312 6.13281C129.312 6.59635 129.211 7.0026 129.008 7.35156C128.81 7.69531 128.542 7.9974 128.203 8.25781C127.865 8.51302 127.49 8.74219 127.078 8.94531C127.568 9.16927 128.008 9.42188 128.398 9.70312C128.794 9.98438 129.107 10.3151 129.336 10.6953C129.565 11.0755 129.68 11.526 129.68 12.0469C129.68 12.6875 129.523 13.2422 129.211 13.7109C128.904 14.1745 128.471 14.5312 127.914 14.7812C127.357 15.0312 126.703 15.1562 125.953 15.1562C125.146 15.1562 124.458 15.0365 123.891 14.7969C123.328 14.5521 122.898 14.2031 122.602 13.75C122.31 13.2917 122.164 12.7422 122.164 12.1016C122.164 11.5755 122.276 11.1198 122.5 10.7344C122.724 10.3438 123.021 10.0078 123.391 9.72656C123.76 9.44531 124.164 9.20833 124.602 9.01562C124.221 8.80729 123.872 8.57031 123.555 8.30469C123.242 8.03906 122.992 7.72917 122.805 7.375C122.622 7.01562 122.531 6.59896 122.531 6.125C122.531 5.54688 122.677 5.05729 122.969 4.65625C123.266 4.25 123.669 3.94271 124.18 3.73438C124.695 3.52083 125.276 3.41406 125.922 3.41406ZM123.438 12.1094C123.438 12.6927 123.643 13.1745 124.055 13.5547C124.466 13.9297 125.089 14.1172 125.922 14.1172C126.714 14.1172 127.326 13.9297 127.758 13.5547C128.19 13.1745 128.406 12.6771 128.406 12.0625C128.406 11.6823 128.307 11.349 128.109 11.0625C127.911 10.7708 127.63 10.5104 127.266 10.2812C126.901 10.0521 126.471 9.84375 125.977 9.65625L125.695 9.55469C125.216 9.7526 124.807 9.97396 124.469 10.2188C124.135 10.4583 123.88 10.7318 123.703 11.0391C123.526 11.3464 123.438 11.7031 123.438 12.1094ZM125.906 4.47656C125.292 4.47656 124.789 4.625 124.398 4.92188C124.008 5.21354 123.812 5.63542 123.812 6.1875C123.812 6.58333 123.906 6.91927 124.094 7.19531C124.286 7.46615 124.547 7.70052 124.875 7.89844C125.203 8.09115 125.57 8.27083 125.977 8.4375C126.372 8.27083 126.724 8.08854 127.031 7.89062C127.339 7.6875 127.581 7.44792 127.758 7.17188C127.935 6.89583 128.023 6.5651 128.023 6.17969C128.023 5.6276 127.828 5.20573 127.438 4.91406C127.052 4.6224 126.542 4.47656 125.906 4.47656Z" fill="#222222"/>
<g clip-path="url(#clip0_5126_27)">
<path d="M11.7065 15C11.5999 15.0004 11.4947 14.9753 11.3998 14.9266L7.99984 13.1466L4.59984 14.9266C4.48944 14.9847 4.36496 15.0106 4.24056 15.0014C4.11616 14.9923 3.99683 14.9484 3.89613 14.8748C3.79543 14.8012 3.7174 14.7008 3.67092 14.585C3.62443 14.4693 3.61136 14.3428 3.63318 14.22L4.29984 10.4666L1.55318 7.79997C1.46748 7.71446 1.40669 7.60722 1.37733 7.48977C1.34796 7.37232 1.35114 7.24909 1.38651 7.13331C1.42515 7.01482 1.49623 6.90954 1.59168 6.82941C1.68712 6.74928 1.80312 6.69751 1.92651 6.67997L5.72651 6.12664L7.39984 2.70664C7.45443 2.59393 7.53967 2.49887 7.64578 2.43236C7.7519 2.36584 7.8746 2.33057 7.99984 2.33057C8.12508 2.33057 8.24779 2.36584 8.3539 2.43236C8.46002 2.49887 8.54525 2.59393 8.59984 2.70664L10.2932 6.11997L14.0932 6.67331C14.2166 6.69084 14.3326 6.74262 14.428 6.82275C14.5235 6.90288 14.5945 7.00816 14.6332 7.12664C14.6685 7.24242 14.6717 7.36565 14.6424 7.4831C14.613 7.60055 14.5522 7.70779 14.4665 7.79331L11.7198 10.46L12.3865 14.2133C12.4103 14.3383 12.3978 14.4675 12.3506 14.5856C12.3033 14.7037 12.2233 14.8059 12.1198 14.88C11.9991 14.9646 11.8538 15.0068 11.7065 15Z" fill="#F95F5F"/>
</g>
<g clip-path="url(#clip1_5126_27)">
<path d="M31.7065 15C31.5999 15.0004 31.4947 14.9753 31.3998 14.9266L27.9998 13.1466L24.5998 14.9266C24.4894 14.9847 24.365 15.0106 24.2406 15.0014C24.1162 14.9923 23.9968 14.9484 23.8961 14.8748C23.7954 14.8012 23.7174 14.7008 23.6709 14.585C23.6244 14.4693 23.6114 14.3428 23.6332 14.22L24.2998 10.4666L21.5532 7.79997C21.4675 7.71446 21.4067 7.60722 21.3773 7.48977C21.348 7.37232 21.3511 7.24909 21.3865 7.13331C21.4251 7.01482 21.4962 6.90954 21.5917 6.82941C21.6871 6.74928 21.8031 6.69751 21.9265 6.67997L25.7265 6.12664L27.3998 2.70664C27.4544 2.59393 27.5397 2.49887 27.6458 2.43236C27.7519 2.36584 27.8746 2.33057 27.9998 2.33057C28.1251 2.33057 28.2478 2.36584 28.3539 2.43236C28.46 2.49887 28.5453 2.59393 28.5998 2.70664L30.2932 6.11997L34.0932 6.67331C34.2166 6.69084 34.3326 6.74262 34.428 6.82275C34.5235 6.90288 34.5945 7.00816 34.6332 7.12664C34.6685 7.24242 34.6717 7.36565 34.6424 7.4831C34.613 7.60055 34.5522 7.70779 34.4665 7.79331L31.7198 10.46L32.3865 14.2133C32.4103 14.3383 32.3978 14.4675 32.3506 14.5856C32.3033 14.7037 32.2233 14.8059 32.1198 14.88C31.9991 14.9646 31.8538 15.0068 31.7065 15Z" fill="#F95F5F"/>
</g>
<g clip-path="url(#clip2_5126_27)">
<path d="M51.7065 15C51.5999 15.0004 51.4947 14.9753 51.3998 14.9266L47.9998 13.1466L44.5998 14.9266C44.4894 14.9847 44.365 15.0106 44.2406 15.0014C44.1162 14.9923 43.9968 14.9484 43.8961 14.8748C43.7954 14.8012 43.7174 14.7008 43.6709 14.585C43.6244 14.4693 43.6114 14.3428 43.6332 14.22L44.2998 10.4666L41.5532 7.79997C41.4675 7.71446 41.4067 7.60722 41.3773 7.48977C41.348 7.37232 41.3511 7.24909 41.3865 7.13331C41.4251 7.01482 41.4962 6.90954 41.5917 6.82941C41.6871 6.74928 41.8031 6.69751 41.9265 6.67997L45.7265 6.12664L47.3998 2.70664C47.4544 2.59393 47.5397 2.49887 47.6458 2.43236C47.7519 2.36584 47.8746 2.33057 47.9998 2.33057C48.1251 2.33057 48.2478 2.36584 48.3539 2.43236C48.46 2.49887 48.5453 2.59393 48.5998 2.70664L50.2932 6.11997L54.0932 6.67331C54.2166 6.69084 54.3326 6.74262 54.428 6.82275C54.5235 6.90288 54.5945 7.00816 54.6332 7.12664C54.6685 7.24242 54.6717 7.36565 54.6424 7.4831C54.613 7.60055 54.5522 7.70779 54.4665 7.79331L51.7198 10.46L52.3865 14.2133C52.4103 14.3383 52.3978 14.4675 52.3506 14.5856C52.3033 14.7037 52.2233 14.8059 52.1198 14.88C51.9991 14.9646 51.8538 15.0068 51.7065 15Z" fill="#F95F5F"/>
</g>
<g clip-path="url(#clip3_5126_27)">
<path d="M71.7065 15C71.5999 15.0004 71.4947 14.9753 71.3998 14.9266L67.9998 13.1466L64.5998 14.9266C64.4894 14.9847 64.365 15.0106 64.2406 15.0014C64.1162 14.9923 63.9968 14.9484 63.8961 14.8748C63.7954 14.8012 63.7174 14.7008 63.6709 14.585C63.6244 14.4693 63.6114 14.3428 63.6332 14.22L64.2998 10.4666L61.5532 7.79997C61.4675 7.71446 61.4067 7.60722 61.3773 7.48977C61.348 7.37232 61.3511 7.24909 61.3865 7.13331C61.4251 7.01482 61.4962 6.90954 61.5917 6.82941C61.6871 6.74928 61.8031 6.69751 61.9265 6.67997L65.7265 6.12664L67.3998 2.70664C67.4544 2.59393 67.5397 2.49887 67.6458 2.43236C67.7519 2.36584 67.8746 2.33057 67.9998 2.33057C68.1251 2.33057 68.2478 2.36584 68.3539 2.43236C68.46 2.49887 68.5453 2.59393 68.5998 2.70664L70.2932 6.11997L74.0932 6.67331C74.2166 6.69084 74.3326 6.74262 74.428 6.82275C74.5235 6.90288 74.5945 7.00816 74.6332 7.12664C74.6685 7.24242 74.6717 7.36565 74.6424 7.4831C74.613 7.60055 74.5522 7.70779 74.4665 7.79331L71.7198 10.46L72.3865 14.2133C72.4103 14.3383 72.3978 14.4675 72.3506 14.5856C72.3033 14.7037 72.2233 14.8059 72.1198 14.88C71.9991 14.9646 71.8538 15.0068 71.7065 15Z" fill="#F95F5F"/>
</g>
<g clip-path="url(#clip4_5126_27)">
<path d="M91.7065 15C91.5999 15.0004 91.4947 14.9753 91.3998 14.9266L87.9998 13.1466L84.5998 14.9266C84.4894 14.9847 84.365 15.0106 84.2406 15.0014C84.1162 14.9923 83.9968 14.9484 83.8961 14.8748C83.7954 14.8012 83.7174 14.7008 83.6709 14.585C83.6244 14.4693 83.6114 14.3428 83.6332 14.22L84.2998 10.4666L81.5532 7.79997C81.4675 7.71446 81.4067 7.60722 81.3773 7.48977C81.348 7.37232 81.3511 7.24909 81.3865 7.13331C81.4251 7.01482 81.4962 6.90954 81.5917 6.82941C81.6871 6.74928 81.8031 6.69751 81.9265 6.67997L85.7265 6.12664L87.3998 2.70664C87.4544 2.59393 87.5397 2.49887 87.6458 2.43236C87.7519 2.36584 87.8746 2.33057 87.9998 2.33057C88.1251 2.33057 88.2478 2.36584 88.3539 2.43236C88.46 2.49887 88.5453 2.59393 88.5998 2.70664L90.2932 6.11997L94.0932 6.67331C94.2166 6.69084 94.3326 6.74262 94.428 6.82275C94.5235 6.90288 94.5945 7.00816 94.6332 7.12664C94.6685 7.24242 94.6717 7.36565 94.6424 7.4831C94.613 7.60055 94.5522 7.70779 94.4665 7.79331L91.7198 10.46L92.3865 14.2133C92.4103 14.3383 92.3978 14.4675 92.3506 14.5856C92.3033 14.7037 92.2233 14.8059 92.1198 14.88C91.9991 14.9646 91.8538 15.0068 91.7065 15Z" fill="#E5E5E5"/>
</g>
<defs>
<clipPath id="clip0_5126_27">
<rect width="16" height="16" fill="white" transform="translate(0 1)"/>
</clipPath>
<clipPath id="clip1_5126_27">
<rect width="16" height="16" fill="white" transform="translate(20 1)"/>
</clipPath>
<clipPath id="clip2_5126_27">
<rect width="16" height="16" fill="white" transform="translate(40 1)"/>
</clipPath>
<clipPath id="clip3_5126_27">
<rect width="16" height="16" fill="white" transform="translate(60 1)"/>
</clipPath>
<clipPath id="clip4_5126_27">
<rect width="16" height="16" fill="white" transform="translate(80 1)"/>
</clipPath>
</defs>
</svg>
